# xmcd
#
# Track frame offsets:
#	150
#	12346
#	35955
#	57404
#	78732
#	100802
#	123048
#	142492
#	164922
#	186845
#	210844
#	236455
#	256587
#
# Disc length: 3746 seconds
#
# Revision: 3
# Processed by: cddbd v1.5.2PL0 Copyright (c) Steve Scherf et al.
# Submitted via: audiograbber 1.83.01
#
DISCID=b80ea00d
DTITLE=Joanne K. Rowling - Harry Potter und die Heiligtümer des Todes - CD 07 v
DTITLE=on 22
DYEAR=2008
DGENRE=Hörbuch
TTITLE0=7087 Das Bestechungsgeschenk (3)
TTITLE1=7088 Das Bestechungsgeschenk (4)
TTITLE2=7089 Das Bestechungsgeschenk (5)
TTITLE3=7090 Das Bestechungsgeschenk (6)
TTITLE4=7091 Das Bestechungsgeschenk (7)
TTITLE5=7092 Das Bestechungsgeschenk (8)
TTITLE6=7093 Das Bestechungsgeschenk (9)
TTITLE7=7094 Das Bestechungsgeschenk (10)
TTITLE8=7095 Magie ist Macht (1)
TTITLE9=7096 Magie ist Macht (2)
TTITLE10=7097 Magie ist Macht (3)
TTITLE11=7098 Magie ist Macht (4)
TTITLE12=7099 Magie ist Macht (5)
EXTD=
EXTT0=
EXTT1=
EXTT2=
EXTT3=
EXTT4=
EXTT5=
EXTT6=
EXTT7=
EXTT8=
EXTT9=
EXTT10=
EXTT11=
EXTT12=
PLAYORDER=
